<svg width="40" height="40" viewBox="0 0 40 40" fill="none" xmlns="http://www.w3.org/2000/svg">
<g clip-path="url(#clip0_2108_232)">
<path d="M20.0008 25.8862C20.3551 25.8862 20.6423 25.599 20.6423 25.2447C20.6423 24.8904 20.3551 24.6031 20.0008 24.6031C19.6464 24.6031 19.3592 24.8904 19.3592 25.2447C19.3592 25.599 19.6464 25.8862 20.0008 25.8862Z" fill="white"/>
<path d="M14.8681 20.7535C15.2224 20.7535 15.5096 20.4663 15.5096 20.1119C15.5096 19.7576 15.2224 19.4704 14.8681 19.4704C14.5137 19.4704 14.2265 19.7576 14.2265 20.1119C14.2265 20.4663 14.5137 20.7535 14.8681 20.7535Z" fill="white"/>
<path d="M15.852 21.8309C15.7166 21.5037 15.3413 21.3477 15.0135 21.4837C14.6863 21.6191 14.5303 21.9944 14.6664 22.3223C14.8018 22.6494 15.1771 22.8054 15.5049 22.6694C15.8321 22.5334 15.9874 22.158 15.852 21.8309Z" fill="white"/>
<path d="M15.9186 23.2878C15.6678 23.5386 15.6678 23.9447 15.9186 24.1949C16.1695 24.4458 16.5756 24.4458 16.8258 24.1949C17.0767 23.9441 17.0767 23.538 16.8258 23.2878C16.5756 23.0369 16.1695 23.0369 15.9186 23.2878Z" fill="white"/>
<path d="M18.2819 24.2611C17.9547 24.1257 17.5794 24.281 17.4434 24.6082C17.308 24.9354 17.4633 25.3107 17.7905 25.4467C18.1177 25.5821 18.493 25.4268 18.629 25.0996C18.765 24.7724 18.6092 24.3971 18.2819 24.2611Z" fill="white"/>
<path d="M20.0008 23.3199C20.3551 23.3199 20.6423 23.0326 20.6423 22.6783C20.6423 22.324 20.3551 22.0367 20.0008 22.0367C19.6464 22.0367 19.3592 22.324 19.3592 22.6783C19.3592 23.0326 19.6464 23.3199 20.0008 23.3199Z" fill="white"/>
<path d="M17.4344 20.7535C17.7887 20.7535 18.076 20.4663 18.076 20.1119C18.076 19.7576 17.7887 19.4704 17.4344 19.4704C17.0801 19.4704 16.7928 19.7576 16.7928 20.1119C16.7928 20.4663 17.0801 20.7535 17.4344 20.7535Z" fill="white"/>
<path d="M17.7311 21.4727C17.4803 21.7236 17.4803 22.1297 17.7311 22.3799C17.982 22.6308 18.3881 22.6308 18.6383 22.3799C18.8892 22.129 18.8892 21.7229 18.6383 21.4727C18.3881 21.2225 17.982 21.2225 17.7311 21.4727Z" fill="white"/>
<path d="M28.3414 20.112C28.3414 17.6059 27.2251 15.3603 25.4703 13.8301L27.4137 6.70588L22.6942 9.06569L20.0008 6.37291L17.308 9.06569L12.5885 6.70588L14.5319 13.8301C12.7764 15.3603 11.6601 17.6059 11.6601 20.112C11.6601 24.7109 15.4019 28.4526 20.0008 28.4526C24.5997 28.4526 28.3414 24.7109 28.3414 20.112ZM14.5819 9.13686L17.5614 10.6266L20.0008 8.18731L22.4407 10.6273L25.4203 9.13748L24.3629 13.0165C23.092 12.2325 21.6016 11.7718 20.0014 11.7718C18.4012 11.7718 16.9109 12.2325 15.6398 13.0165L14.5819 9.13686ZM12.9432 20.112C12.9432 16.2207 16.1095 13.0544 20.0008 13.0544C23.8921 13.0544 27.0583 16.2206 27.0583 20.112C27.0583 24.0033 23.8921 27.1695 20.0008 27.1695C16.1095 27.1695 12.9432 24.0032 12.9432 20.112Z" fill="white"/>
<path d="M24.4912 20.112H25.7743C25.7743 16.9278 23.1842 14.3376 20 14.3376V15.6208C22.4759 15.6208 24.4912 17.6354 24.4912 20.112Z" fill="white"/>
<path d="M39.8901 9.46921V9.20358C39.8901 8.51834 39.6232 7.87356 39.1381 7.38918C38.6537 6.9048 38.0096 6.63784 37.325 6.63784C37.3243 6.63784 37.3237 6.63784 37.323 6.63784H37.058L34.1157 9.58015V5.38618H32.3918C28.2586 5.38618 24.0107 3.61029 20.4293 0.386881L20.0008 0L19.5716 0.386881C15.9909 3.61021 11.7428 5.38618 7.60973 5.38618H5.88579V9.58023L2.9434 6.63792H2.6784C2.67777 6.63792 2.67715 6.63792 2.67645 6.63792C1.9919 6.63792 1.34768 6.9048 0.863293 7.38926C0.378285 7.87301 0.111328 8.51779 0.111328 9.20366V9.46929L6.36299 15.7209C7.36191 21.0994 9.9232 26.0762 13.6822 30.013L10.7791 32.9169C10.5398 33.1568 10.1535 33.169 9.89882 32.9425L4.57694 28.2114L1.06548 31.7228C0.459146 32.3292 0.111406 33.1683 0.111406 34.0268C0.111406 35.1643 0.717744 36.2345 1.69354 36.8203L6.17697 39.5111C6.70948 39.8306 7.31902 40 7.94067 40C8.85623 40 9.71656 39.6433 10.3633 38.9965L12.1815 37.1783C13.933 38.1324 16.8465 38.7175 20.0006 38.7175C23.1547 38.7175 26.0681 38.1323 27.8197 37.1783L29.638 38.9965C30.2853 39.6439 31.1463 40 32.0613 40C32.6823 40 33.2918 39.8306 33.8244 39.5111L38.3084 36.8203C39.2843 36.2351 39.8899 35.1643 39.8899 34.0268C39.8899 33.1683 39.5422 32.3291 38.9358 31.7222L35.4244 28.2108L30.1017 32.9418C29.8477 33.1683 29.4627 33.1555 29.2227 32.9162L26.3188 30.0123C30.078 26.0756 32.6386 21.0994 33.6381 15.7209L39.8901 9.46921ZM37.5669 7.94356C37.8172 7.99106 38.0475 8.11231 38.231 8.29646C38.4151 8.4806 38.537 8.71092 38.5845 8.96053L33.9445 13.6011C34.0215 12.8787 34.0703 12.1518 34.0908 11.4204L37.5669 7.94356ZM7.16894 6.66932H7.60973C11.8949 6.66932 16.275 4.91523 20.0008 1.71753C23.7272 4.91461 28.1073 6.66932 32.3918 6.66932H32.8326V10.6574C32.8326 19.9477 27.9264 28.6572 20.0008 33.4794C12.0752 28.6566 7.16894 19.9477 7.16894 10.6568V6.66932ZM1.41713 8.96045C1.46526 8.71021 1.58651 8.48052 1.77065 8.29638C1.95479 8.11224 2.18511 7.99098 2.43472 7.94348L5.9115 11.4203C5.93204 12.1517 5.98017 12.8786 6.05775 13.601L1.41713 8.96045ZM1.39463 34.0268C1.39463 33.5058 1.6051 32.9977 1.97269 32.6294L4.6282 29.9739L8.20763 33.1549L4.87203 37.2322L2.35379 35.7206C1.76229 35.3652 1.39463 34.7165 1.39463 34.0268ZM9.45624 38.0893C8.77615 38.7694 7.66168 38.9055 6.83729 38.4115L5.984 37.8995L9.17717 33.9967C9.93554 34.5639 11.0057 34.5036 11.6858 33.8241L14.5929 30.917C14.94 31.2488 15.2941 31.5728 15.6592 31.8871L9.45624 38.0893ZM20.0008 37.4349C17.29 37.4349 14.7198 36.9717 13.1319 36.2287L16.6466 32.714C17.6032 33.4634 18.6137 34.1544 19.6749 34.7793L20.0009 34.9711L20.3268 34.7793C21.388 34.1544 22.3985 33.4634 23.3558 32.7134L26.8704 36.2281C25.2817 36.9717 22.7115 37.4349 20.0008 37.4349ZM38.0288 32.6294C38.3965 32.9977 38.6068 33.5065 38.6068 34.0268C38.6068 34.7159 38.2399 35.3652 37.6483 35.7206L35.1295 37.2321L31.7939 33.1554L35.3733 29.9745L38.0288 32.6294ZM30.8244 33.9966L34.0176 37.8994L33.1643 38.4114C32.3392 38.9054 31.2247 38.7687 30.5453 38.0893L24.343 31.8864C24.7081 31.572 25.0616 31.248 25.4088 30.9163L28.3158 33.8233C28.9965 34.5048 30.0673 34.5644 30.8244 33.9966Z" fill="white"/>
</g>
<defs>
<clipPath id="clip0_2108_232">
<rect width="40" height="40" fill="white"/>
</clipPath>
</defs>
</svg>
