<svg width="40" height="40" viewBox="0 0 40 40" fill="none" xmlns="http://www.w3.org/2000/svg">
<path fill-rule="evenodd" clip-rule="evenodd" d="M11.25 20.8188V22.5312C11.25 24.2137 12.17 25.7963 13.3463 27.0563C14.3612 28.145 15.54 28.9875 16.25 29.4487V35C16.25 35.6625 16.5138 36.2987 16.9825 36.7675C17.4513 37.2362 18.0875 37.5 18.75 37.5H21.25C21.9125 37.5 22.5487 37.2362 23.0175 36.7675C23.4862 36.2987 23.75 35.6625 23.75 35V29.4487C24.46 28.9875 25.6388 28.145 26.6537 27.0563C27.83 25.7963 28.75 24.2137 28.75 22.5312V20.8188C30.3137 18.8863 31.25 16.4263 31.25 13.75C31.25 7.54125 26.2087 2.5 20 2.5C13.7913 2.5 8.75 7.54125 8.75 13.75C8.75 16.4263 9.68625 18.8863 11.25 20.8188ZM13.825 23.1538C14.0225 23.9713 14.5775 24.7113 15.1737 25.3512C16.4787 26.75 18.1075 27.6575 18.1075 27.6575C18.5037 27.8787 18.75 28.2962 18.75 28.75V35H21.25V28.75C21.25 28.2962 21.4963 27.8787 21.8925 27.6575C21.8925 27.6575 23.5212 26.75 24.8263 25.3512C25.4225 24.7125 25.9775 23.9713 26.1737 23.1538C24.4012 24.3213 22.2787 25 20 25C17.7213 25 15.5988 24.3213 13.825 23.1538ZM20 5C24.8288 5 28.75 8.92125 28.75 13.75C28.75 18.5788 24.8288 22.5 20 22.5C15.1713 22.5 11.25 18.5788 11.25 13.75C11.25 8.92125 15.1713 5 20 5ZM18.125 18.125C18.815 18.125 19.375 18.685 19.375 19.375C19.375 20.065 18.815 20.625 18.125 20.625C17.435 20.625 16.875 20.065 16.875 19.375C16.875 18.685 17.435 18.125 18.125 18.125ZM21.875 18.125C22.565 18.125 23.125 18.685 23.125 19.375C23.125 20.065 22.565 20.625 21.875 20.625C21.185 20.625 20.625 20.065 20.625 19.375C20.625 18.685 21.185 18.125 21.875 18.125ZM16.25 14.375C16.94 14.375 17.5 14.935 17.5 15.625C17.5 16.315 16.94 16.875 16.25 16.875C15.56 16.875 15 16.315 15 15.625C15 14.935 15.56 14.375 16.25 14.375ZM20 14.375C20.69 14.375 21.25 14.935 21.25 15.625C21.25 16.315 20.69 16.875 20 16.875C19.31 16.875 18.75 16.315 18.75 15.625C18.75 14.935 19.31 14.375 20 14.375ZM23.75 14.375C24.44 14.375 25 14.935 25 15.625C25 16.315 24.44 16.875 23.75 16.875C23.06 16.875 22.5 16.315 22.5 15.625C22.5 14.935 23.06 14.375 23.75 14.375ZM14.375 10.625C15.065 10.625 15.625 11.185 15.625 11.875C15.625 12.565 15.065 13.125 14.375 13.125C13.685 13.125 13.125 12.565 13.125 11.875C13.125 11.185 13.685 10.625 14.375 10.625ZM18.125 10.625C18.815 10.625 19.375 11.185 19.375 11.875C19.375 12.565 18.815 13.125 18.125 13.125C17.435 13.125 16.875 12.565 16.875 11.875C16.875 11.185 17.435 10.625 18.125 10.625ZM21.875 10.625C22.565 10.625 23.125 11.185 23.125 11.875C23.125 12.565 22.565 13.125 21.875 13.125C21.185 13.125 20.625 12.565 20.625 11.875C20.625 11.185 21.185 10.625 21.875 10.625ZM25.625 10.625C26.315 10.625 26.875 11.185 26.875 11.875C26.875 12.565 26.315 13.125 25.625 13.125C24.935 13.125 24.375 12.565 24.375 11.875C24.375 11.185 24.935 10.625 25.625 10.625Z" fill="white"/>
</svg>
