<svg width="40" height="40" viewBox="0 0 40 40" fill="none" xmlns="http://www.w3.org/2000/svg">
<g clip-path="url(#clip0_2108_226)">
<path fill-rule="evenodd" clip-rule="evenodd" d="M15.7096 22.4364C17.6041 22.1691 20.661 21.7267 22.3206 21.7267C26.4253 21.7267 30.062 22.8689 32.3184 24.601C33.9246 25.834 34.8449 27.3715 34.8449 29.0163C34.8449 31.1218 33.3131 33.0628 30.7894 34.4053C31.0069 34.7671 31.1182 35.1492 31.1182 35.5399C31.1182 36.4261 30.5261 37.2832 29.4351 37.9476C28.0312 38.8024 25.769 39.3725 23.2151 39.3725C20.8432 39.3725 17.6333 38.5925 15.6852 38.1209C14.9289 37.9377 14.3847 37.7957 14.1975 37.7957C9.18692 37.7957 5.15625 33.8945 5.15625 29.9175C5.15625 26.3399 8.38825 23.3128 12.6855 22.7294V2.37403C12.6855 1.38046 13.3985 0.627441 14.1975 0.627441C14.9155 0.627441 15.5641 1.23552 15.6883 2.07976C21.396 2.92579 27.0184 5.31921 32.5936 8.52062C32.7893 8.63301 32.8963 8.85372 32.8633 9.07701C32.8303 9.3003 32.664 9.48062 32.4442 9.5316C26.6815 10.867 21.0748 12.7248 15.7096 15.3912V22.4364ZM12.6855 23.8385C9.04802 24.3867 6.25429 26.8736 6.25429 29.9175C6.25429 33.3809 9.83405 36.6976 14.1975 36.6976C14.4166 36.6976 15.0585 36.8394 15.9435 37.0536C17.8253 37.5092 20.924 38.2745 23.2151 38.2745C25.5319 38.2745 27.5904 37.7852 28.8639 37.0097C29.5585 36.5868 30.0202 36.1041 30.0202 35.5399C30.0202 35.2023 29.8413 34.8903 29.5535 34.5999C29.4277 34.4729 29.3715 34.2926 29.403 34.1166C29.4344 33.9407 29.5497 33.791 29.7118 33.7156C32.1402 32.5856 33.7468 30.9266 33.7468 29.0163C33.7468 27.6848 32.9501 26.4702 31.6497 25.472C29.5464 23.8573 26.1471 22.8248 22.3206 22.8248C20.6546 22.8248 17.5516 23.285 15.7096 23.5451V26.2882C17.5763 26.8074 18.8835 28.2577 18.8835 29.9175C18.8835 31.9946 16.8145 33.75 14.1975 33.75C11.5806 33.75 9.51162 31.9946 9.51162 29.9175C9.51162 28.2577 10.8188 26.8074 12.6855 26.2882V23.8385ZM14.6115 28.7198V2.37403C14.6115 2.17858 14.5537 1.99968 14.4505 1.87144C14.3841 1.78877 14.2989 1.72548 14.1975 1.72548C14.0962 1.72548 14.011 1.78877 13.9446 1.87144C13.8414 1.99968 13.7835 2.17858 13.7835 2.37403V28.7198C13.7835 28.9153 13.8414 29.0943 13.9446 29.2225C14.011 29.3052 14.0962 29.3685 14.1975 29.3685C14.2989 29.3685 14.3841 29.3052 14.4505 29.2225C14.5537 29.0943 14.6115 28.9153 14.6115 28.7198ZM15.7096 14.1675C20.5781 11.7979 25.639 10.0728 30.8316 8.78862C25.8405 6.03552 20.8115 3.97999 15.7096 3.19348V14.1675ZM12.6855 27.4387C11.4758 27.8689 10.6097 28.8001 10.6097 29.9175C10.6097 31.4653 12.2474 32.652 14.1975 32.652C16.1477 32.652 17.7854 31.4653 17.7854 29.9175C17.7854 28.8001 16.9193 27.8689 15.7096 27.4387V28.7198C15.7096 29.7135 14.9966 30.4665 14.1975 30.4665C13.3985 30.4665 12.6855 29.7135 12.6855 28.7198V27.4387Z" fill="white"/>
</g>
<defs>
<clipPath id="clip0_2108_226">
<rect width="40" height="40" fill="white"/>
</clipPath>
</defs>
</svg>
