<svg width="40" height="40" viewBox="0 0 40 40" fill="none" xmlns="http://www.w3.org/2000/svg">
<g clip-path="url(#clip0_2108_250)">
<path d="M38.6376 21.2834C38.0532 20.9462 37.0754 20.3816 36.0903 20.1115C33.9516 19.5253 33.0114 20.6907 32.7065 21.219C32.7065 21.219 32.2512 22.111 32.2347 22.151L29.8754 27.8764L28.9065 27.5434L33.3861 16.6603L34.461 18.1523C34.9068 18.7715 35.6255 19.1261 36.4849 19.1511C36.5133 19.1517 36.5416 19.1523 36.57 19.1523C37.2973 19.1523 37.9552 18.882 38.478 18.3671C39.3001 17.5569 39.8043 16.4696 39.9761 15.1353C40.1192 14.0242 39.6062 12.9866 38.6373 12.4272C38.0532 12.09 37.0754 11.5254 36.0903 11.2553C33.9516 10.6691 33.0114 11.8346 32.7065 12.3628C32.7065 12.3628 32.3302 13.0678 32.3287 13.0717L26.686 26.7805L24.5028 26.0301C26.505 24.5976 27.8121 22.2532 27.8121 19.6095V9.45328C27.8121 5.1024 24.2724 1.56268 19.9215 1.56268H19.0621V1.17205C19.0621 0.524779 18.5375 0.000183105 17.8903 0.000183105C17.2433 0.000183105 16.7184 0.524779 16.7184 1.17205V1.56268H15.859C11.5084 1.56268 7.96873 5.1024 7.96873 9.45328V19.6095C7.96873 22.3167 9.33927 24.7099 11.423 26.1317L0.805357 29.6293C0.324706 29.7877 0 30.2366 0 30.7423V38.8276C0 39.4749 0.524596 39.9995 1.17187 39.9995C1.81915 39.9995 2.34374 39.4749 2.34374 38.8276V31.5901L9.98471 29.073C9.9899 29.1322 9.99905 29.1911 10.0134 29.25L11.0501 33.4818C11.1248 33.7864 11.3186 34.0485 11.5881 34.2094C11.7712 34.3186 11.9787 34.3748 12.1884 34.3748C12.2873 34.3748 12.3864 34.3623 12.4838 34.3369L16.5261 33.2838L16.5176 36.291C16.5158 36.9382 17.0388 37.4644 17.6858 37.4662H17.6895C18.3349 37.4662 18.8595 36.9437 18.8613 36.2977L18.8702 33.2331C18.8812 33.2362 18.8915 33.2404 18.9025 33.2432L23.0999 34.3369C23.1973 34.3623 23.2964 34.3748 23.3956 34.3748C23.605 34.3748 23.8128 34.3186 23.9959 34.2094C24.2654 34.0485 24.4592 33.7864 24.5336 33.4818L25.5706 29.25C25.6002 29.1288 25.6091 29.0058 25.6002 28.8853L33.4371 31.5788V38.8276C33.4371 39.4749 33.9617 39.9995 34.609 39.9995C35.2562 39.9995 35.7808 39.4749 35.7808 38.8276V30.7423C35.7808 30.2421 35.4632 29.7968 34.9898 29.6342L32.0959 28.6396L33.384 25.5137L34.461 27.0085C34.9071 27.628 35.6258 27.9826 36.4849 28.0073C36.5136 28.0082 36.5419 28.0085 36.5706 28.0085C37.2976 28.0085 37.9555 27.7381 38.478 27.2233C39.3004 26.4131 39.8046 25.3257 39.9764 23.9915C40.1192 22.8804 39.6065 21.8428 38.6376 21.2834ZM34.5241 13.9021L34.7362 13.5344C34.7661 13.4825 34.8461 13.3446 35.4711 13.5158C36.1651 13.7059 36.9793 14.1759 37.4657 14.4569C37.6107 14.5405 37.6732 14.6681 37.6516 14.836C37.5457 15.6602 37.2854 16.252 36.8331 16.6975C36.7464 16.783 36.6732 16.8129 36.5526 16.8083C36.4312 16.8049 36.3738 16.7827 36.3573 16.7747L34.6435 14.3959C34.5409 14.2537 34.4372 14.0526 34.5241 13.9021ZM10.3125 9.45328C10.3125 6.39482 12.8006 3.90642 15.859 3.90642H19.9215C22.98 3.90642 25.4684 6.39482 25.4684 9.45328V10.2971C22.8878 9.17801 20.3961 8.63144 17.8887 8.63144C15.3762 8.63144 12.8854 9.1771 10.3125 10.2943V9.45328ZM24.7085 12.5227C24.3557 13.3336 23.9944 14.1991 23.6169 15.1375C21.7071 14.0831 19.782 13.5493 17.8851 13.5493C15.9796 13.5493 14.0557 14.0825 12.1566 15.1356C11.81 14.2757 11.4468 13.4202 11.0605 12.5255C13.4021 11.4833 15.6454 10.9752 17.8887 10.9752C20.1229 10.9749 22.3632 11.4824 24.7085 12.5227ZM13.0435 31.7692L12.4636 29.4019L13.3004 28.7025L15.1342 31.2241L13.0435 31.7692ZM17.7224 30.7984L15.3097 27.4806C15.4913 27.4931 20.2246 27.4952 20.3747 27.4867L17.7224 30.7984ZM22.5402 31.7692L20.3951 31.2101L22.355 28.7629L23.12 29.4019L22.5402 31.7692ZM19.9215 25.1564H15.859C12.8006 25.1564 10.3125 22.668 10.3125 19.6095V16.7998C10.5346 17.2032 10.9069 17.5187 11.344 17.6643C11.5194 17.7226 11.7001 17.7513 11.8792 17.7513C12.1835 17.7513 12.4832 17.6683 12.7456 17.5059C14.4769 16.4357 16.206 15.8931 17.8851 15.8931C19.555 15.8931 21.2863 16.4363 23.0309 17.5078C23.4475 17.7638 23.9571 17.8209 24.4286 17.6637C24.8702 17.5169 25.2465 17.1962 25.4684 16.7863V19.6095C25.4684 22.668 22.98 25.1564 19.9215 25.1564ZM37.6516 23.6921C37.5457 24.5167 37.2854 25.1081 36.8331 25.5537C36.7464 25.6391 36.6732 25.6687 36.5523 25.6645C36.4312 25.6611 36.3738 25.6388 36.357 25.6309L34.6431 23.2521C34.5409 23.1099 34.4372 22.9087 34.5238 22.7583L34.7362 22.3909C34.7661 22.3387 34.8458 22.201 35.4711 22.3719C36.1651 22.5624 36.9793 23.0323 37.4657 23.3131C37.6107 23.3967 37.6732 23.5243 37.6516 23.6921Z" fill="white"/>
</g>
<defs>
<clipPath id="clip0_2108_250">
<rect width="40" height="40" fill="white"/>
</clipPath>
</defs>
</svg>
