<svg width="40" height="40" viewBox="0 0 40 40" fill="none" xmlns="http://www.w3.org/2000/svg">
<path d="M23.9038 15.3561V6.8091M23.9038 15.3561L32.4501 15.3561M23.9038 15.3561L35.2991 3.9631M29.6012 38.1481C13.8665 38.1481 1.1111 25.3927 1.1111 9.6581V5.3846C1.1111 3.0244 3.0244 1.1111 5.3846 1.1111H7.9898C8.9703 1.1111 9.825 1.7784 10.0627 2.7289L12.163 11.1307C12.3715 11.9648 12.0599 12.8425 11.3721 13.3584L8.9144 15.2012C8.2013 15.736 7.8889 16.6668 8.1933 17.4979C10.4941 23.779 15.4803 28.7652 21.7614 31.066C22.5925 31.3704 23.5233 31.058 24.0581 30.3449L25.9009 27.8872C26.4168 27.1994 27.2945 26.8878 28.1286 27.0963L36.5304 29.1966C37.4809 29.4343 38.1481 30.289 38.1481 31.2695V33.8747C38.1481 36.2349 36.2349 38.1481 33.8747 38.1481H29.6012Z" stroke="#2958A4" stroke-width="1.5" stroke-linecap="round" stroke-linejoin="round"/>
</svg>
