<svg width="34" height="34" viewBox="0 0 34 34" fill="none" xmlns="http://www.w3.org/2000/svg">
<path d="M20.75 13.25V5.75M20.75 13.25L28.25 13.25M20.75 13.25L30.75 3.25M25.75 33.25C11.9429 33.25 0.75 22.0571 0.75 8.25V4.5C0.75 2.42893 2.42893 0.75 4.5 0.75H6.78604C7.64642 0.75 8.39639 1.33556 8.60506 2.17025L10.4481 9.54222C10.631 10.2741 10.3576 11.0443 9.75404 11.497L7.598 13.114C6.97227 13.5833 6.69556 14.395 6.96461 15.1294C8.98359 20.641 13.359 25.0164 18.8706 27.0354C19.605 27.3044 20.4167 27.0277 20.886 26.402L22.503 24.246C22.9557 23.6424 23.7259 23.369 24.4578 23.5519L31.8298 25.3949C32.6644 25.6036 33.25 26.3536 33.25 27.214V29.5C33.25 31.5711 31.5711 33.25 29.5 33.25H25.75Z" stroke="#2958A4" stroke-width="1.5" stroke-linecap="round" stroke-linejoin="round"/>
</svg>
